<svg width="70" height="70" viewBox="0 0 70 70" fill="none" xmlns="http://www.w3.org/2000/svg">
<g filter="url(#filter0_d_686_1304)">
<circle cx="35" cy="35" r="25" fill="white"/>
</g>
<path fill-rule="evenodd" clip-rule="evenodd" d="M39.9842 32.984C39.9842 34.2217 39.4925 35.4087 38.6174 36.2838C37.7422 37.159 36.5552 37.6507 35.3175 37.6507C34.0799 37.6507 32.8929 37.159 32.0177 36.2838C31.1425 35.4087 30.6509 34.2217 30.6509 32.984C30.6509 31.7463 31.1425 30.5593 32.0177 29.6842C32.8929 28.809 34.0799 28.3173 35.3175 28.3173C36.5552 28.3173 37.7422 28.809 38.6174 29.6842C39.4925 30.5593 39.9842 31.7463 39.9842 32.984ZM37.6509 32.984C37.6509 33.6028 37.405 34.1963 36.9675 34.6339C36.5299 35.0715 35.9364 35.3173 35.3175 35.3173C34.6987 35.3173 34.1052 35.0715 33.6676 34.6339C33.23 34.1963 32.9842 33.6028 32.9842 32.984C32.9842 32.3652 33.23 31.7717 33.6676 31.3341C34.1052 30.8965 34.6987 30.6507 35.3175 30.6507C35.9364 30.6507 36.5299 30.8965 36.9675 31.3341C37.405 31.7717 37.6509 32.3652 37.6509 32.984Z" fill="#0F0F0F"/>
<path fill-rule="evenodd" clip-rule="evenodd" d="M27.7597 40.271C26.2556 38.839 25.21 36.9931 24.7551 34.9669C24.3001 32.9406 24.4562 30.825 25.2037 28.8874C25.9511 26.9499 27.2563 25.2775 28.9542 24.0818C30.6522 22.886 32.6665 22.2206 34.7426 22.1697C36.8187 22.1188 38.8633 22.6847 40.6177 23.7958C42.3722 24.9068 43.7578 26.5132 44.5993 28.4118C45.4408 30.3104 45.7005 32.4159 45.3454 34.462C44.9903 36.5081 44.0364 38.403 42.6043 39.907L35.364 47.5113L27.7597 40.271ZM40.915 38.2982L35.2835 44.2132L29.3685 38.5817C28.1988 37.4679 27.3856 36.0322 27.0317 34.4563C26.6779 32.8804 26.7993 31.2349 27.3806 29.7279C27.962 28.221 28.9771 26.9203 30.2976 25.9903C31.6182 25.0602 33.1849 24.5427 34.7996 24.503C36.4143 24.4634 38.0044 24.9034 39.3691 25.7675C40.7337 26.6316 41.8114 27.881 42.466 29.3575C43.1206 30.8341 43.3226 32.4717 43.0465 34.0631C42.7704 35.6545 42.0287 37.1283 40.915 38.2982Z" fill="#0F0F0F"/>
<defs>
<filter id="filter0_d_686_1304" x="0" y="0" width="70" height="70" filterUnits="userSpaceOnUse" color-interpolation-filters="sRGB">
<feFlood flood-opacity="0" result="BackgroundImageFix"/>
<feColorMatrix in="SourceAlpha" type="matrix" values="0 0 0 0 0 0 0 0 0 0 0 0 0 0 0 0 0 0 127 0" result="hardAlpha"/>
<feOffset/>
<feGaussianBlur stdDeviation="5"/>
<feComposite in2="hardAlpha" operator="out"/>
<feColorMatrix type="matrix" values="0 0 0 0 0.204167 0 0 0 0 0.204167 0 0 0 0 0.204167 0 0 0 0.2 0"/>
<feBlend mode="normal" in2="BackgroundImageFix" result="effect1_dropShadow_686_1304"/>
<feBlend mode="normal" in="SourceGraphic" in2="effect1_dropShadow_686_1304" result="shape"/>
</filter>
</defs>
</svg>
