<svg width="29" height="28" viewBox="0 0 29 28" fill="none" xmlns="http://www.w3.org/2000/svg">
<path fill-rule="evenodd" clip-rule="evenodd" d="M4.80872 7.0001C4.80872 6.62879 4.95622 6.2727 5.21877 6.01015C5.48132 5.7476 5.83741 5.6001 6.20872 5.6001H23.0087C23.38 5.6001 23.7361 5.7476 23.9987 6.01015C24.2612 6.2727 24.4087 6.62879 24.4087 7.0001C24.4087 7.3714 24.2612 7.7275 23.9987 7.99005C23.7361 8.2526 23.38 8.4001 23.0087 8.4001H6.20872C5.83741 8.4001 5.48132 8.2526 5.21877 7.99005C4.95622 7.7275 4.80872 7.3714 4.80872 7.0001ZM4.80872 14.0001C4.80872 13.6288 4.95622 13.2727 5.21877 13.0101C5.48132 12.7476 5.83741 12.6001 6.20872 12.6001H23.0087C23.38 12.6001 23.7361 12.7476 23.9987 13.0101C24.2612 13.2727 24.4087 13.6288 24.4087 14.0001C24.4087 14.3714 24.2612 14.7275 23.9987 14.99C23.7361 15.2526 23.38 15.4001 23.0087 15.4001H6.20872C5.83741 15.4001 5.48132 15.2526 5.21877 14.99C4.95622 14.7275 4.80872 14.3714 4.80872 14.0001ZM4.80872 21.0001C4.80872 20.6288 4.95622 20.2727 5.21877 20.0101C5.48132 19.7476 5.83741 19.6001 6.20872 19.6001H14.6087C14.98 19.6001 15.3361 19.7476 15.5987 20.0101C15.8612 20.2727 16.0087 20.6288 16.0087 21.0001C16.0087 21.3714 15.8612 21.7275 15.5987 21.99C15.3361 22.2526 14.98 22.4001 14.6087 22.4001H6.20872C5.83741 22.4001 5.48132 22.2526 5.21877 21.99C4.95622 21.7275 4.80872 21.3714 4.80872 21.0001Z" fill="#0F0F0F"/>
</svg>
