<svg width="28" height="28" viewBox="0 0 28 28" fill="none" xmlns="http://www.w3.org/2000/svg">
<path fill-rule="evenodd" clip-rule="evenodd" d="M18.9842 11.984C18.9842 13.2217 18.4925 14.4087 17.6174 15.2838C16.7422 16.159 15.5552 16.6507 14.3175 16.6507C13.0799 16.6507 11.8929 16.159 11.0177 15.2838C10.1425 14.4087 9.65088 13.2217 9.65088 11.984C9.65088 10.7463 10.1425 9.55934 11.0177 8.68417C11.8929 7.809 13.0799 7.31734 14.3175 7.31734C15.5552 7.31734 16.7422 7.809 17.6174 8.68417C18.4925 9.55934 18.9842 10.7463 18.9842 11.984ZM16.6509 11.984C16.6509 12.6028 16.405 13.1963 15.9675 13.6339C15.5299 14.0715 14.9364 14.3173 14.3175 14.3173C13.6987 14.3173 13.1052 14.0715 12.6676 13.6339C12.23 13.1963 11.9842 12.6028 11.9842 11.984C11.9842 11.3652 12.23 10.7717 12.6676 10.3341C13.1052 9.8965 13.6987 9.65067 14.3175 9.65067C14.9364 9.65067 15.5299 9.8965 15.9675 10.3341C16.405 10.7717 16.6509 11.3652 16.6509 11.984Z" fill="#0F0F0F"/>
<path fill-rule="evenodd" clip-rule="evenodd" d="M6.75967 19.271C5.25565 17.839 4.21004 15.9931 3.75508 13.9669C3.30011 11.9406 3.45623 9.82495 4.20367 7.88742C4.95111 5.94988 6.25632 4.2775 7.95424 3.08175C9.65216 1.88601 11.6665 1.22061 13.7426 1.16971C15.8187 1.1188 17.8633 1.68467 19.6177 2.79576C21.3722 3.90684 22.7578 5.51325 23.5993 7.41182C24.4408 9.3104 24.7005 11.4159 24.3454 13.462C23.9903 15.5081 23.0364 17.403 21.6043 18.907L14.364 26.5113L6.75967 19.271ZM19.915 17.2982L14.2835 23.2132L8.36851 17.5817C7.19877 16.4679 6.38556 15.0322 6.03173 13.4563C5.67789 11.8804 5.79931 10.2349 6.38064 8.72794C6.96196 7.221 7.97709 5.92028 9.29764 4.99025C10.6182 4.06023 12.1849 3.54267 13.7996 3.50303C15.4143 3.46338 17.0044 3.90343 18.3691 4.76752C19.7337 5.63162 20.8114 6.88095 21.466 8.35755C22.1206 9.83414 22.3226 11.4717 22.0465 13.0631C21.7704 14.6545 21.0287 16.1283 19.915 17.2982Z" fill="#0F0F0F"/>
</svg>
