<svg width="24" height="24" viewBox="0 0 24 24" fill="none" xmlns="http://www.w3.org/2000/svg">
<path d="M11.9999 17.833C12.3305 17.833 12.6078 17.721 12.8318 17.497C13.055 17.2738 13.1666 16.9969 13.1666 16.6663V11.9705C13.1666 11.64 13.055 11.3677 12.8318 11.1538C12.6078 10.94 12.3305 10.833 11.9999 10.833C11.6694 10.833 11.3925 10.9446 11.1693 11.1678C10.9453 11.3918 10.8333 11.6691 10.8333 11.9997V16.6955C10.8333 17.0261 10.9453 17.2983 11.1693 17.5122C11.3925 17.7261 11.6694 17.833 11.9999 17.833ZM11.9999 8.49967C12.3305 8.49967 12.6078 8.38767 12.8318 8.16367C13.055 7.94045 13.1666 7.66356 13.1666 7.33301C13.1666 7.00245 13.055 6.72517 12.8318 6.50117C12.6078 6.27795 12.3305 6.16634 11.9999 6.16634C11.6694 6.16634 11.3925 6.27795 11.1693 6.50117C10.9453 6.72517 10.8333 7.00245 10.8333 7.33301C10.8333 7.66356 10.9453 7.94045 11.1693 8.16367C11.3925 8.38767 11.6694 8.49967 11.9999 8.49967ZM11.9999 23.6663C10.386 23.6663 8.86936 23.3599 7.44992 22.747C6.03047 22.1349 4.79575 21.3038 3.74575 20.2538C2.69575 19.2038 1.8647 17.9691 1.25259 16.5497C0.639697 15.1302 0.333252 13.6136 0.333252 11.9997C0.333252 10.3858 0.639697 8.86912 1.25259 7.44967C1.8647 6.03023 2.69575 4.79551 3.74575 3.74551C4.79575 2.69551 6.03047 1.86406 7.44992 1.25117C8.86936 0.639063 10.386 0.333008 11.9999 0.333008C13.6138 0.333008 15.1305 0.639063 16.5499 1.25117C17.9694 1.86406 19.2041 2.69551 20.2541 3.74551C21.3041 4.79551 22.1351 6.03023 22.7473 7.44967C23.3601 8.86912 23.6666 10.3858 23.6666 11.9997C23.6666 13.6136 23.3601 15.1302 22.7473 16.5497C22.1351 17.9691 21.3041 19.2038 20.2541 20.2538C19.2041 21.3038 17.9694 22.1349 16.5499 22.747C15.1305 23.3599 13.6138 23.6663 11.9999 23.6663ZM11.9999 21.333C14.586 21.333 16.7883 20.4242 18.6068 18.6065C20.4244 16.7881 21.3333 14.5858 21.3333 11.9997C21.3333 9.41356 20.4244 7.21129 18.6068 5.39284C16.7883 3.57517 14.586 2.66634 11.9999 2.66634C9.41381 2.66634 7.21192 3.57517 5.39425 5.39284C3.57581 7.21129 2.66659 9.41356 2.66659 11.9997C2.66659 14.5858 3.57581 16.7881 5.39425 18.6065C7.21192 20.4242 9.41381 21.333 11.9999 21.333Z" fill="white"/>
</svg>
