<svg width="110" height="89" viewBox="0 0 110 89" fill="none" xmlns="http://www.w3.org/2000/svg">
<g clip-path="url(#clip0_12_89)">
<path d="M28.7851 83.2324L29.4982 60.4403C29.4982 60.4403 27.5801 60.8792 26.7987 62.2202C26.1163 63.3918 25.7307 79.4856 26.1458 81.0277C26.5695 82.6012 28.7851 83.2324 28.7851 83.2324Z" fill="#0F0F0F"/>
<path d="M73.962 52.165C75.6284 50.5171 76.5475 51.3174 76.8743 51.6887C77.3343 52.2116 78.0128 55.4376 75.7323 57.6515C73.1682 60.1405 72.039 59.5649 72.039 59.5649C72.039 59.5649 71.4676 54.632 73.962 52.165ZM52.2002 58.1634C52.2002 58.1634 51.0599 57.1613 50.9467 56.072C50.8353 55.004 51.6587 54.6701 52.2593 54.826C54.0773 55.2973 52.2002 58.1634 52.2002 58.1634ZM39.0212 37.7386C38.4039 37.3168 37.7699 36.6803 38.4427 35.9363C38.8079 35.5322 39.7399 35.8754 40.3565 36.5891C40.9204 37.2417 41.3351 38.1167 41.4462 38.2502C41.528 38.3481 39.6192 38.148 39.0212 37.7386ZM99.6849 16.4492C95.2351 12.7918 90.0056 10.7278 84.6495 10.1432C84.726 8.12691 84.8794 6.01164 85.1215 3.77889C85.282 2.29691 85.4963 1.21542 85.433 1.13889C84.7655 0.337916 83.6783 0.236104 82.9987 0.272414C81.7841 0.337916 80.5382 1.40588 80.6717 3.00782C80.6717 3.00782 80.4684 6.67271 80.4121 9.98695C76.1613 10.1357 71.9372 11.1902 68.0612 13.1068C64.675 14.7814 60.0757 18.0857 60.0486 20.4985C60.0216 22.9114 60.6744 23.8754 61.4754 24.1424C62.0094 24.3204 64.2229 20.1692 69.9618 17.3302C73.1205 15.7675 76.748 14.8601 80.5435 14.802C80.8262 17.609 81.1533 21.1731 82.2736 25.346C82.8866 27.6304 84.0297 30.9062 85.5562 33.4283C84.9236 34.2186 83.8435 36.2054 82.9987 36.4898C82.6994 36.5906 82.2626 36.738 81.6919 36.5845C80.9831 36.393 80.6467 35.7957 80.5157 35.5614C79.8273 34.3247 79.766 32.9908 79.9152 30.4633C79.9746 29.4548 80.6976 27.9739 80.6638 27.9372C80.3968 27.6482 79.7407 27.5556 79.3588 27.5485C78.6123 27.535 76.8886 27.9963 76.6223 29.0614C76.0883 31.1974 76.3443 33.6772 76.3108 35.7291C76.2834 37.4004 76.2514 39.3776 75.3913 40.4751C74.8812 41.1258 74.0154 41.5623 73.1959 41.4541C70.9055 41.1511 70.2138 38.4702 69.9924 36.9451C69.5328 33.7783 69.6065 31.2789 70.9368 27.9522C70.9699 27.8696 70.7884 27.7891 70.526 27.6895C69.3712 27.2512 66.1844 28.2437 66.0716 29.6581C65.8783 32.0859 65.8943 35.9235 66.9138 38.9735C66.7746 41.0468 64.7427 44.6879 63.9039 44.8747C62.9463 45.0883 62.2863 43.6583 62.1158 43.1304C61.2999 40.6086 61.7641 36.8547 61.0753 34.4052C60.2772 31.5708 57.0597 30.5491 54.88 31.3469C52.3383 32.2771 51.1514 35.7252 50.6206 38.8436C50.4654 38.3424 50.4459 37.5403 50.3537 35.8772C50.2793 34.5347 50.3825 33.245 50.354 33.2372C48.604 32.7623 46.9422 33.8302 46.9718 35.0467C46.981 35.4361 46.9978 35.827 47.0173 36.2175C46.2406 37.3357 45.2424 38.4634 43.4126 38.4004C42.9466 37.3043 42.2183 36.011 41.3016 35.246C39.962 34.1286 37.583 33.3383 36.2398 34.9C34.5774 36.8344 36.4178 39.0291 38.3313 39.9411C39.4683 40.4833 40.9919 40.6107 42.0026 40.6086C42.4205 43.0325 42.6031 46.2827 41.4907 48.6183C40.7651 50.1416 39.8406 50.835 38.9325 51.2736C38.4872 51.4886 37.5698 51.5748 36.9297 51.5107C36.3281 51.4502 35.7767 51.1761 35.2609 50.7987C32.858 49.0412 32.309 44.4579 34.5265 41.6545C34.5881 41.5762 34.5222 41.2597 33.236 41.1426C32.2571 41.0536 30.8481 41.8695 30.5366 42.9375C29.5911 46.1791 29.7983 49.2068 31.539 52.1768C31.6359 52.3423 31.6554 52.4701 31.7676 52.6232C34.9465 51.8403 38.3039 52.0753 40.8876 53.977C43.8715 51.7777 44.6803 48.3705 44.628 45.1699C44.6055 43.8125 44.1517 41.72 43.9381 40.3861C44.016 40.3591 45.2285 40.186 45.9184 39.7186C46.4695 39.3452 46.8614 39.0209 47.1957 38.6653C47.5563 42.5103 48.227 45.9911 48.4367 47.5183C48.7218 49.5973 52.4597 48.6628 52.2012 47.0441C51.8047 44.5593 51.3134 43.6854 51.4362 42.0995C51.6808 38.9401 52.8377 33.8673 55.0406 34.0008C56.466 34.0873 56.8259 37.7664 56.9985 39.6741C57.2167 42.0913 58.2932 46.5596 60.862 47.6408C64.0816 48.9964 66.2542 45.8149 67.9156 42.1365C67.9861 41.9802 68.0843 41.7673 68.1872 41.5313C69.5015 43.3148 71.5406 44.2457 74.6644 43.3454C76.4144 42.841 78.2908 40.987 78.4656 37.1577C78.6443 37.4068 79.2449 37.9433 79.4923 38.1313C82.4071 40.3416 84.721 39.5268 86.6177 36.556C86.7747 36.3097 86.9541 35.9224 87.0855 35.5034C87.1791 35.6041 87.2717 35.7077 87.3671 35.8006C89.2748 37.6571 92.5666 37.0099 94.1995 35.7586C95.9794 34.3941 96.3945 32.3173 96.6911 30.8934C96.9 29.8905 95.5419 29.4174 95.2077 30.4188C95.0293 30.9528 94.1792 33.4629 93.3092 33.9787C91.8788 34.8259 90.3428 34.0972 89.3179 32.9567C88.7095 32.2796 87.7885 30.8951 87.3692 29.8208C86.4564 27.4819 85.9912 26.1562 85.6302 24.3468C85.0674 21.5238 84.7189 18.4534 84.6199 15.0694C89.3973 15.7732 94.2689 17.8781 98.6761 21.7694C105.146 27.4819 108.557 38.3096 105.054 50.7425C104.083 54.1884 100.042 59.4902 97.0015 58.2741C94.5099 57.278 95.3266 51.7186 95.842 48.8191C95.9542 48.1872 93.1921 46.8811 91.6514 48.3307C90.1099 49.7799 90.1886 53.5954 90.6115 55.3069C91.0302 57.0039 92.6567 61.6862 90.6987 62.1013C87.7487 62.7271 85.3589 58.6005 85.2404 55.0407C85.0959 50.7055 85.9524 46.9128 87.2442 45.5419C87.2442 45.5419 84.8844 42.878 83.1308 45.0075C82.1647 46.1809 79.4257 51.8222 82.5801 59.1844C82.2099 63.238 81.0024 67.4344 77.1118 67.7081C72.306 68.0463 72.2615 61.5228 72.2615 61.5228C72.2615 61.5228 76.0687 61.1644 78.5357 57.1175C81.384 52.4452 79.2036 49.7009 77.5568 49.0188C76.1403 48.4321 72.5441 48.3367 69.9628 51.5997C66.9063 55.4639 66.6628 61.5292 68.1947 64.3686C68.2089 64.3953 68.2206 64.4159 68.2342 64.4416C68.0743 65.5597 67.6568 67.5739 66.5877 69.5325C65.6276 71.2925 63.9972 72.541 62.3828 71.6685C61.5594 71.2235 60.7866 69.729 60.536 67.7305C60.1718 64.8214 60.4712 60.9768 60.7364 59.1199C61.0034 57.251 61.3932 55.5704 61.3594 55.5156C61.0699 55.0485 59.908 54.8417 59.0291 55.1916C56.1075 56.3564 57.3766 59.7874 53.6387 58.8754C53.5672 58.8579 53.9502 58.4749 54.3062 57.6739C55.1032 55.8815 54.5657 53.2016 51.4807 53.3796C49.8311 53.475 46.8828 56.4354 50.3978 60.2473C50.3992 60.2488 47.9461 62.5356 45.6368 62.8827C44.0545 62.4025 41.926 62.3032 39.3547 63.4149C37.4726 64.2287 41.0086 61.9532 41.4835 58.7493C41.7128 57.2004 41.2696 55.7188 40.0596 54.9816C35.5795 52.2526 29.04 55.02 26.5317 56.643C24.0103 58.2745 20.094 61.5805 19.3525 66.9071C18.9709 69.6486 21.6889 68.665 21.6889 68.665C21.6889 68.665 21.7259 67.4112 21.9633 66.4921C22.718 63.569 27.1956 57.6664 33.9039 56.895C38.8065 56.3311 37.8863 61.6788 36.3288 63.7702C35.3029 65.1475 33.6144 66.6626 33.592 67.3076C33.5568 68.3314 33.6216 70.7785 35.2235 68.7761C36.667 66.9719 39.0201 64.7395 41.1984 64.7406C44.5094 64.7417 46.0718 69.152 45.0729 72.84C43.9744 76.8929 40.224 81.5742 35.8265 84.0248C31.4283 86.4758 26.1608 85.196 24.2028 82.7931C24.101 82.6681 22.1114 83.8165 22.6454 85.374C23.8607 88.9185 32.702 89.1118 39.6441 85.1515C42.23 83.6763 44.6475 81.5147 45.9184 79.9007C52.9937 70.912 49.7773 66.1297 48.7485 64.7712C48.6453 64.6349 48.3989 64.3807 48.0198 64.0909C50.1625 62.9286 51.3426 61.6378 51.9702 61.0558C52.0741 60.959 54.2396 61.9233 57.0281 60.158C57.8774 59.6204 55.8216 72.399 59.4046 75.5153C61.2408 77.1122 63.9406 76.1927 65.8985 74.2049C68.2687 71.7984 69.2608 68.6508 69.7197 66.6028C69.8546 66.7516 69.9992 66.9079 70.17 67.0851C70.17 67.0851 73.663 70.6005 78.9444 69.0068C82.5954 67.905 83.5562 63.0116 83.7979 61.0362C83.8243 61.064 83.8485 61.0949 83.8755 61.1224C87.9171 65.1956 91.1733 64.0592 92.0632 63.5253C93.7738 62.4986 93.7389 59.7308 93.7389 59.7308C93.7389 59.7308 97.1467 61.5866 100.481 60.0419C104.968 57.963 106.892 54.0311 107.905 50.7097C112.785 34.6978 107.365 22.7615 99.6849 16.4492Z" fill="#0F0F0F"/>
<path d="M7.15996 67.2631C6.7018 67.2272 5.70646 66.9071 5.24653 66.8181C5.15931 66.8014 4.26578 69.0335 6.0475 69.7105C9.40552 70.9864 14.2 69.0961 17.4245 67.1446C17.5491 65.852 18.0727 64.5516 18.6701 63.3473C17.7207 64.1781 16.6527 64.9492 15.0508 65.6612C13.0451 66.5526 10.5418 67.5301 7.15996 67.2631Z" fill="#0F0F0F"/>
<path d="M18.1796 36.5329C24.2178 40.149 26.7393 49.4937 23.3798 56.3945C23.2883 56.5824 23.0591 57.1527 22.9355 57.5557C23.3552 57.1801 23.7849 56.8231 24.2185 56.486C24.3616 56.3557 24.5101 56.2275 24.6628 56.109C25.7133 55.2959 26.6734 54.6327 27.9137 54.061C29.7655 48.7518 28.9076 39.0942 23.0726 34.7245C18.9075 31.6053 13.4674 31.2707 9.53334 32.3173C5.53774 33.3803 1.99781 35.2841 0.159132 39.437C-0.577049 41.1006 1.47628 42.5815 1.52363 42.4629C1.82017 41.7211 2.15124 41.0112 2.79913 40.0301C5.42311 36.0569 8.28738 35.2246 10.6013 34.9278C13.5649 34.5479 15.5887 34.9815 18.1796 36.5329Z" fill="#0F0F0F"/>
<path d="M6.86309 39.259C6.09202 40.2081 7.60105 62.6688 8.1094 64.4743C8.40593 65.5277 10.9217 64.9948 10.8978 64.2967C10.6754 57.7405 9.87865 37.4424 9.87865 37.4424C9.87865 37.4424 7.85166 38.0423 6.86309 39.259Z" fill="#0F0F0F"/>
<path d="M83.3487 81.0409C83.1276 79.9818 82.9076 78.9224 82.6873 77.8634C84.0322 77.5572 87.3927 76.6231 87.5515 78.7665C87.6743 80.4193 84.9866 80.8038 83.3487 81.0409ZM82.3708 76.3639C82.2074 75.5829 82.0429 74.8022 81.876 74.0223C83.1678 73.5744 85.2671 72.8108 86.0061 73.8738C87.2774 75.7018 83.946 76.1607 82.3708 76.3639ZM87.0121 76.1906C87.5312 75.6281 87.7601 74.8407 87.4746 73.7051C86.7444 70.7984 82.6944 72.327 80.8642 72.8553C80.5036 72.9596 80.3634 73.2487 80.3801 73.5363C80.3634 73.6285 80.3634 73.7279 80.3862 73.8347C80.9532 76.4576 81.4915 79.0869 82.0401 81.7141C82.0308 81.855 82.065 82.0028 82.1344 82.1356C82.2508 82.5318 82.615 82.6361 82.9386 82.5353C82.9443 82.5339 82.9489 82.5346 82.9546 82.5335C85.2724 82.0544 89.5233 81.6592 88.9231 78.2599C88.7102 77.0521 87.9662 76.4501 87.0121 76.1906Z" fill="#0F0F0F"/>
<path d="M92.0607 76.2934C92.2544 75.0304 92.4484 73.7674 92.6463 72.505C93.3725 73.5773 94.0991 74.6481 94.8218 75.7217C93.9079 75.9456 92.9866 76.1308 92.0607 76.2934ZM92.8895 70.3211C92.7805 70.1587 92.6399 70.0687 92.4911 70.0295C92.1138 69.8519 91.6157 69.9562 91.5307 70.4802C91.0216 73.6143 90.5691 76.7573 90.0597 79.8911C89.9134 80.7928 91.2961 81.1342 91.4438 80.2282C91.5766 79.4076 91.7062 78.5874 91.8336 77.7658C93.1212 77.5512 94.401 77.3066 95.664 76.9777C96.0624 77.5771 96.4582 78.1777 96.8487 78.7822C97.3461 79.5525 98.5557 78.8003 98.0563 78.0271C96.3781 75.4288 94.6117 72.8902 92.8895 70.3211Z" fill="#0F0F0F"/>
<path d="M101.177 73.1832C100.653 73.2975 100.143 73.4424 99.6739 73.583C99.6643 73.5848 99.655 73.5862 99.6461 73.588C99.3282 72.3527 99.0068 71.1185 98.6821 69.8853C100.352 69.3617 102.88 68.5016 103.605 70.3684C104.125 71.7066 102.649 72.6581 101.177 73.1832ZM104.772 73.3907C104.55 73.2686 104.315 73.1793 104.071 73.1131C104.888 72.3541 105.352 71.3819 105.035 70.2032C104.081 66.6487 100.049 68.0872 97.5632 68.7309C97.0496 68.8637 96.9748 69.3731 97.1727 69.7358C97.8986 72.4783 98.596 75.2276 99.3026 77.9755C99.5311 78.8644 100.892 78.4433 100.664 77.5554C100.442 76.6943 100.222 75.8332 100.001 74.9717C100.007 74.9699 100.014 74.9678 100.02 74.9656C100.478 74.8816 100.973 74.7538 101.469 74.5819C102.289 74.4117 103.124 74.3483 103.915 74.568C104.767 74.8047 105.005 75.8228 105.179 76.564C105.39 77.4575 106.751 77.0346 106.541 76.1447C106.275 75.0162 105.831 73.9742 104.772 73.3907Z" fill="#0F0F0F"/>
</g>
<defs>
<clipPath id="clip0_12_89">
<rect width="110" height="88.4615" fill="white"/>
</clipPath>
</defs>
</svg>
