<svg width="28" height="28" viewBox="0 0 28 28" fill="none" xmlns="http://www.w3.org/2000/svg">
<path d="M9.10016 2.33334H18.9002C22.6335 2.33334 25.6668 5.36668 25.6668 9.10001V18.9C25.6668 20.6946 24.9539 22.4158 23.6849 23.6848C22.4159 24.9538 20.6948 25.6667 18.9002 25.6667H9.10016C5.36683 25.6667 2.3335 22.6333 2.3335 18.9V9.10001C2.3335 7.30538 3.04641 5.58425 4.31541 4.31525C5.5844 3.04626 7.30553 2.33334 9.10016 2.33334ZM8.86683 4.66668C7.75292 4.66668 6.68463 5.10918 5.89698 5.89683C5.10933 6.68448 4.66683 7.75277 4.66683 8.86668V19.1333C4.66683 21.455 6.54516 23.3333 8.86683 23.3333H19.1335C20.2474 23.3333 21.3157 22.8908 22.1033 22.1032C22.891 21.3155 23.3335 20.2473 23.3335 19.1333V8.86668C23.3335 6.54501 21.4552 4.66668 19.1335 4.66668H8.86683ZM20.1252 6.41668C20.5119 6.41668 20.8829 6.57032 21.1564 6.84381C21.4299 7.1173 21.5835 7.48824 21.5835 7.87501C21.5835 8.26178 21.4299 8.63272 21.1564 8.90621C20.8829 9.1797 20.5119 9.33334 20.1252 9.33334C19.7384 9.33334 19.3675 9.1797 19.094 8.90621C18.8205 8.63272 18.6668 8.26178 18.6668 7.87501C18.6668 7.48824 18.8205 7.1173 19.094 6.84381C19.3675 6.57032 19.7384 6.41668 20.1252 6.41668ZM14.0002 8.16668C15.5473 8.16668 17.031 8.78126 18.125 9.87522C19.2189 10.9692 19.8335 12.4529 19.8335 14C19.8335 15.5471 19.2189 17.0308 18.125 18.1248C17.031 19.2188 15.5473 19.8333 14.0002 19.8333C12.4531 19.8333 10.9693 19.2188 9.87537 18.1248C8.78141 17.0308 8.16683 15.5471 8.16683 14C8.16683 12.4529 8.78141 10.9692 9.87537 9.87522C10.9693 8.78126 12.4531 8.16668 14.0002 8.16668ZM14.0002 10.5C13.0719 10.5 12.1817 10.8688 11.5253 11.5251C10.8689 12.1815 10.5002 13.0718 10.5002 14C10.5002 14.9283 10.8689 15.8185 11.5253 16.4749C12.1817 17.1313 13.0719 17.5 14.0002 17.5C14.9284 17.5 15.8187 17.1313 16.475 16.4749C17.1314 15.8185 17.5002 14.9283 17.5002 14C17.5002 13.0718 17.1314 12.1815 16.475 11.5251C15.8187 10.8688 14.9284 10.5 14.0002 10.5Z" fill="#0F0F0F"/>
</svg>
