<svg width="28" height="28" viewBox="0 0 28 28" fill="none" xmlns="http://www.w3.org/2000/svg">
<path fill-rule="evenodd" clip-rule="evenodd" d="M23.6209 6.20777C23.741 6.08782 23.8363 5.9454 23.9013 5.78863C23.9664 5.63185 23.9999 5.46381 24 5.29407C24.0001 5.12434 23.9668 4.95625 23.9019 4.7994C23.8371 4.64255 23.742 4.50001 23.622 4.37992C23.5021 4.25982 23.3596 4.16453 23.2029 4.09948C23.0461 4.03443 22.8781 4.0009 22.7083 4.00079C22.5386 4.00069 22.3705 4.03402 22.2137 4.09887C22.0568 4.16373 21.9143 4.25885 21.7942 4.37879L13.9998 12.1733L6.20773 4.37879C5.9652 4.13626 5.63625 4 5.29326 4C4.95026 4 4.62132 4.13626 4.37879 4.37879C4.13625 4.62133 4 4.95028 4 5.29328C4 5.63628 4.13625 5.96523 4.37879 6.20777L12.1731 14L4.37879 21.7922C4.2587 21.9123 4.16344 22.0549 4.09844 22.2118C4.03345 22.3687 4 22.5369 4 22.7067C4 22.8766 4.03345 23.0447 4.09844 23.2016C4.16344 23.3585 4.2587 23.5011 4.37879 23.6212C4.62132 23.8637 4.95026 24 5.29326 24C5.46309 24 5.63126 23.9665 5.78817 23.9016C5.94507 23.8366 6.08764 23.7413 6.20773 23.6212L13.9998 15.8267L21.7942 23.6212C22.0367 23.8634 22.3655 23.9994 22.7083 23.9992C23.0511 23.999 23.3798 23.8626 23.622 23.6201C23.8642 23.3775 24.0002 23.0487 24 22.7059C23.9998 22.3631 23.8634 22.0345 23.6209 21.7922L15.8265 14L23.6209 6.20777Z" fill="#0F0F0F"/>
</svg>
