<svg width="28" height="28" viewBox="0 0 28 28" fill="none" xmlns="http://www.w3.org/2000/svg">
<path d="M16.3335 22.1667H11.6668C9.19148 22.1667 6.81751 21.1833 5.06717 19.433C3.31683 17.6827 2.3335 15.3087 2.3335 12.8333V7.3C2.3335 7.13432 2.46781 7 2.6335 7H6.70016C6.86585 7 7.00016 7.13431 7.00016 7.3V12.8333C7.00016 14.071 7.49183 15.258 8.367 16.1332C9.17123 16.9374 10.2388 17.4178 11.367 17.4904C11.5323 17.501 11.6668 17.3657 11.6668 17.2V7.3C11.6668 7.13431 11.8011 7 11.9668 7H16.0335C16.1992 7 16.3335 7.13431 16.3335 7.3V12.2147C16.3335 12.2334 16.35 12.2478 16.3685 12.2453V12.2453C17.6472 12.0858 18.8236 11.4647 19.6765 10.4987C20.463 9.60797 20.9246 8.48053 20.9916 7.29986C21.001 7.13445 21.1345 7 21.3002 7H25.3009C25.4902 7 25.6322 7.17317 25.5951 7.3588L25.2678 8.99617C25.0289 10.1909 24.5202 11.3153 23.7806 12.2836C23.1879 13.0596 22.4594 13.7188 21.6326 14.2305C21.4053 14.3711 21.4306 14.7384 21.6726 14.8517C22.46 15.2204 23.164 15.7509 23.7371 16.4117C24.4691 17.2555 24.9607 18.2805 25.1605 19.3795L25.6026 21.813C25.636 21.9972 25.4946 22.1667 25.3074 22.1667H21.3002C21.1345 22.1667 21.001 22.0322 20.9916 21.8668C20.9246 20.6861 20.463 19.5587 19.6765 18.6679C18.8987 17.7871 17.852 17.1931 16.7041 16.9742C16.5268 16.9404 16.3685 17.0807 16.3685 17.2611V22.136C16.3685 22.1547 16.352 22.1691 16.3335 22.1667V22.1667Z" stroke="#0F0F0F" stroke-width="2" stroke-linecap="round" stroke-linejoin="round"/>
</svg>
